<svg width="101" height="101" viewBox="0 0 101 101" fill="none" xmlns="http://www.w3.org/2000/svg">
<path d="M97.9474 51.7629C98.507 52.4426 98.7447 53.2189 98.6602 54.0923C98.5997 54.7179 98.3745 55.262 97.9843 55.7247C97.5935 56.1931 97.1023 56.53 96.5105 56.7347L96.2701 55.4338C96.5858 55.3093 96.8484 55.1203 97.0576 54.8667C97.2662 54.6188 97.3874 54.3206 97.4209 53.9724C97.4707 53.4591 97.324 53.0042 96.9811 52.6077C96.6376 52.2171 96.2003 51.9961 95.6694 51.9447C95.1382 51.8934 94.6666 52.0263 94.2547 52.3441C93.848 52.668 93.6199 53.0867 93.5703 53.6002C93.5367 53.9484 93.5954 54.2637 93.7468 54.5465C93.8983 54.8291 94.1086 55.055 94.3783 55.224L93.9089 56.4741C93.3729 56.1662 92.9609 55.7451 92.673 55.2111C92.3846 54.6828 92.2705 54.1058 92.331 53.4804C92.4155 52.6069 92.7946 51.89 93.4683 51.3298C94.1477 50.7702 94.9243 50.5325 95.7977 50.617C96.671 50.7012 97.3876 51.0834 97.9474 51.7629Z" fill="white"/>
<path d="M97.2443 62.5136L91.8738 62.3994L96.311 65.4271L95.6733 67.4175L89.7448 65.518L90.1381 64.2901L94.7455 65.7662L90.575 62.9265L91.123 61.2157L96.1391 61.3286L91.5572 59.8605L91.9508 58.6326L97.8793 60.532L97.2443 62.5136Z" fill="white"/>
<path d="M91.5417 69.5159C92.2972 69.9623 92.7845 70.6118 93.004 71.4644C93.2232 72.3171 93.1098 73.121 92.6636 73.8765C92.2171 74.632 91.5692 75.1169 90.7197 75.3313C89.8671 75.5505 89.0613 75.4398 88.3029 74.9984C88.2978 74.9955 88.29 74.9909 88.2798 74.9849C87.5397 74.5475 87.061 73.9068 86.8437 73.0623C86.6274 72.2046 86.7424 71.398 87.1886 70.6425C87.635 69.887 88.2818 69.3981 89.1293 69.1755C89.982 68.9563 90.7862 69.0697 91.5417 69.5159ZM89.4126 70.4275C88.913 70.5386 88.529 70.8214 88.2607 71.2757C87.9923 71.7299 87.9299 72.2028 88.0737 72.6939C88.2142 73.1902 88.5168 73.5755 88.9815 73.8499C89.446 74.1242 89.9295 74.2034 90.432 74.0871C90.9367 73.9788 91.3231 73.6976 91.5915 73.2433C91.8569 72.7942 91.9168 72.3198 91.7709 71.8206C91.6302 71.3244 91.3276 70.9391 90.8631 70.6645C90.3987 70.3901 89.9151 70.3112 89.4126 70.4275Z" fill="white"/>
<path d="M89.012 79.5404L85.6674 83.3261L84.7345 82.5017L85.9416 81.1354L82.2092 77.838L83.0926 76.8381L86.8249 80.1356L88.0791 78.716L89.012 79.5404Z" fill="white"/>
<path d="M79.3025 81.0461L83.1814 85.9155L80.9345 87.7053C80.4569 88.0857 79.9182 88.242 79.3183 88.1742C78.7138 88.1099 78.2304 87.8505 77.8685 87.396C77.499 86.9322 77.352 86.4051 77.4274 85.8146C77.5063 85.2287 77.7869 84.7436 78.2694 84.3594L79.4726 83.4007L78.2591 81.8772L79.3025 81.0461ZM80.2208 84.3398L79.1216 85.2154C78.8943 85.3963 78.7656 85.6202 78.7356 85.8868C78.7053 86.1534 78.7734 86.3911 78.9397 86.5996C79.1022 86.8037 79.3112 86.9138 79.5667 86.9302C79.8177 86.95 80.0589 86.8678 80.2908 86.683L81.3898 85.8074L80.2208 84.3398Z" fill="white"/>
<path d="M72.0015 93.4872L71.4205 92.396L74.4741 90.77L73.8764 89.6475L71.1368 91.1064L70.5683 90.0388L73.3079 88.5798L72.7101 87.4575L69.6565 89.0834L69.0756 87.9924L73.3066 85.7393L76.2325 91.234L72.0015 93.4872Z" fill="white"/>
<path d="M68.6544 95.1119L63.8495 96.6713L63.4653 95.4869L65.1993 94.9242L63.6621 90.1872L64.931 89.7754L66.4682 94.5125L68.27 93.9277L68.6544 95.1119Z" fill="white"/>
<path d="M59.5277 91.469L60.341 97.641L59.0184 97.8153L58.7175 95.5315L56.8206 95.7725C56.2263 95.8448 55.7189 95.7174 55.2992 95.3899C54.8734 95.0633 54.6268 94.6442 54.5594 94.1328C54.4912 93.6156 54.619 93.1323 54.9425 92.6829C55.266 92.2338 55.7218 91.9704 56.3094 91.893L59.5277 91.469ZM58.362 92.8335L56.6867 93.0542C56.3988 93.0923 56.1847 93.1921 56.0446 93.3542C55.9044 93.516 55.8488 93.7059 55.8774 93.9233C55.9059 94.1408 56.0091 94.3098 56.1863 94.4298C56.3637 94.5499 56.5963 94.591 56.8842 94.5532L58.5608 94.3413L58.362 92.8335Z" fill="white"/>
<path d="M47.3681 92.3159L46.4132 98.4676L43.5747 98.0268C42.971 97.9332 42.4912 97.6428 42.1348 97.1554C41.7726 96.6672 41.6361 96.136 41.7253 95.5617C41.8162 94.9759 42.1046 94.5108 42.5899 94.1661C43.0746 93.8273 43.6216 93.7052 44.2308 93.7997L45.7511 94.0359L46.0499 92.1113L47.3681 92.3159ZM45.567 95.2222L44.1785 95.0066C43.8915 94.9621 43.6396 95.019 43.423 95.1773C43.2065 95.3356 43.0775 95.5468 43.0366 95.8103C42.9966 96.0682 43.0573 96.2966 43.2182 96.4955C43.3734 96.6936 43.5975 96.8155 43.8906 96.8608L45.2791 97.0765L45.567 95.2222Z" fill="white"/>
<path d="M39.0504 94.1331C38.7514 94.9581 38.2031 95.5571 37.4058 95.9304C36.6083 96.3035 35.7972 96.3406 34.9722 96.0416C34.1473 95.7425 33.551 95.1954 33.1833 94.4001C32.8102 93.6026 32.7704 92.7904 33.0636 91.9635C33.0656 91.958 33.0688 91.9495 33.0728 91.9384C33.3658 91.1302 33.9072 90.5412 34.6969 90.1715C35.5 89.8004 36.3139 89.7644 37.1388 90.0635C37.9639 90.3623 38.564 90.9077 38.9391 91.6996C39.3124 92.4969 39.3493 93.3082 39.0504 94.1331ZM37.7611 92.2092C37.5595 91.7387 37.2106 91.4137 36.7146 91.2338C36.2186 91.0542 35.7423 91.0802 35.2863 91.3121C34.8245 91.5422 34.5017 91.9108 34.3178 92.418C34.134 92.9253 34.1457 93.4151 34.353 93.8874C34.5524 94.3634 34.9003 94.6913 35.3964 94.871C35.8868 95.0489 36.364 95.02 36.8278 94.7845C37.2896 94.5544 37.6124 94.1858 37.7963 93.6786C37.9799 93.1715 37.9683 92.6814 37.7611 92.2092Z" fill="white"/>
<path d="M32.0647 88.261L31.4388 89.2858C31.3083 89.1922 31.1822 89.1257 31.0606 89.0861C30.9308 89.0483 30.8205 89.0296 30.73 89.0301C30.6313 89.0323 30.533 89.0625 30.435 89.1208C30.3287 89.1808 30.2469 89.2351 30.1897 89.2835C30.1241 89.3338 30.0508 89.414 29.9696 89.5243C29.8802 89.6364 29.8202 89.7178 29.7893 89.7685C29.7553 89.824 29.7028 89.9101 29.6317 90.0266L27.833 92.9714L23.8561 90.5424L27.1008 85.2295L28.2394 85.9247L25.6434 90.1751L27.3436 91.2134L28.4978 89.3236C29.4992 87.6843 30.688 87.3301 32.0647 88.261Z" fill="white"/>
<path d="M24.8023 83.7434L20.5798 88.3179L19.6192 87.431L22.9796 83.8038L18.0835 86.0136L16.5151 84.5658L20.7377 79.9915L21.6983 80.8781L18.2358 84.6291L23.2797 82.338L24.8023 83.7434Z" fill="white"/>
<path d="M15.6544 73.8364L16.6795 75.2242L15.9937 78.517L18.011 77.0269L18.8036 78.0999L13.7961 81.7987L13.0036 80.7257L15.0065 79.246L11.6826 78.9372L10.6733 77.571L14.8008 77.9496L15.6544 73.8364Z" fill="white"/>
<path d="M14.1903 71.7947L8.57079 74.4736L8.00824 73.2934L12.4756 71.1737L7.10889 71.4069L6.19043 69.4802L11.8099 66.8013L12.3725 67.9814L7.76449 70.1781L13.2986 69.9242L14.1903 71.7947Z" fill="white"/>
<path d="M7.68613 60.8065L6.54884 61.0144L5.96826 57.8387L7.10555 57.6309L7.68613 60.8065Z" fill="white"/>
<path d="M3.02714 49.1512C2.4622 48.476 2.2186 47.7014 2.29633 46.8271C2.352 46.2013 2.57316 45.6554 2.95979 45.1899C3.34697 44.7183 3.83557 44.3779 4.42562 44.1685L4.67617 45.4676C4.36133 45.5943 4.10028 45.7853 3.89304 46.0407C3.68634 46.2902 3.5675 46.589 3.53651 46.9374C3.49082 47.4512 3.64094 47.905 3.98685 48.299C4.33329 48.687 4.77227 48.9046 5.30378 48.9518C5.83529 48.9991 6.30577 48.8624 6.71525 48.5416C7.11934 48.2145 7.34423 47.7941 7.38992 47.2803C7.42092 46.9319 7.35964 46.6168 7.2061 46.3353C7.05257 46.0539 6.84036 45.8295 6.56951 45.6625L7.02921 44.4088C7.56766 44.7127 7.98287 45.1305 8.27486 45.6625C8.56736 46.1886 8.68578 46.7644 8.6301 47.3905C8.55238 48.2645 8.17883 48.9842 7.50952 49.5498C6.83426 50.1148 6.05963 50.3583 5.18561 50.2807C4.31157 50.2028 3.59209 49.8264 3.02714 49.1512Z" fill="white"/>
<path d="M3.68104 38.2448L9.05189 38.3388L4.60342 35.3278L5.23356 33.3352L11.1692 35.2122L10.7804 36.4417L6.16756 34.9829L10.3487 37.8068L9.80709 39.5197L4.79064 39.4258L9.37805 40.8763L8.98926 42.1059L3.05359 40.2289L3.68104 38.2448Z" fill="white"/>
<path d="M9.26589 31.3891C8.50713 30.9484 8.01493 30.3025 7.78928 29.4514C7.56365 28.6006 7.6712 27.7955 8.11193 27.0369C8.55266 26.278 9.19703 25.7885 10.045 25.5679C10.896 25.3422 11.7024 25.4472 12.4642 25.883C12.4693 25.8859 12.477 25.8903 12.4872 25.8963C13.2306 26.3281 13.7141 26.9655 13.9375 27.8084C14.1602 28.6644 14.0512 29.4719 13.6104 30.2307C13.1697 30.9893 12.5264 31.4831 11.6805 31.7117C10.8295 31.9374 10.0247 31.8297 9.26589 31.3891ZM11.3882 30.4619C11.8869 30.3472 12.2688 30.0615 12.5338 29.6053C12.7988 29.1491 12.8577 28.6757 12.7104 28.1857C12.5661 27.6905 12.2607 27.3075 11.7941 27.0364C11.3276 26.7654 10.8435 26.6898 10.3418 26.8099C9.83803 26.9217 9.45359 27.2059 9.18856 27.6621C8.9265 28.1134 8.8702 28.5881 9.01963 29.0861C9.16395 29.5815 9.46937 29.9646 9.93592 30.2356C10.4025 30.5064 10.8866 30.582 11.3882 30.4619Z" fill="white"/>
<path d="M11.7036 21.346L15.0205 17.5361L15.9596 18.3537L14.7624 19.7287L18.5187 22.999L17.6427 24.005L13.8865 20.7349L12.6427 22.1636L11.7036 21.346Z" fill="white"/>
<path d="M21.4597 19.6877L17.5631 14.8326L19.8034 13.0346C20.2797 12.6524 20.8178 12.4941 21.418 12.5599C22.0227 12.6219 22.5069 12.8795 22.8707 13.3326C23.2417 13.795 23.3907 14.3216 23.3176 14.9125C23.2406 15.4987 22.9618 15.9848 22.4809 16.3708L21.281 17.3338L22.5001 18.8528L21.4597 19.6877ZM20.5295 16.3974L21.6254 15.5179C21.8519 15.3361 21.9799 15.1118 22.0091 14.8451C22.0383 14.5784 21.9694 14.341 21.8024 14.1329C21.6391 13.9295 21.4297 13.8201 21.1741 13.8047C20.9231 13.7857 20.682 13.8689 20.4508 14.0545L19.355 14.934L20.5295 16.3974Z" fill="white"/>
<path d="M28.6136 7.24097L29.2028 8.32776L26.1613 9.97635L26.7674 11.0944L29.4961 9.61534L30.0724 10.6787L27.3437 12.1578L27.9498 13.2758L30.9911 11.6273L31.5803 12.714L27.3659 14.9983L24.3993 9.52525L28.6136 7.24097Z" fill="white"/>
<path d="M31.9697 5.55964L36.7686 3.98218L37.1575 5.165L35.4255 5.73433L36.9807 10.4656L35.7134 10.8821L34.1582 6.1509L32.3586 6.74244L31.9697 5.55964Z" fill="white"/>
<path d="M40.8773 9.17765L40.0166 3.01204L41.3379 2.82764L41.6563 5.1089L43.5513 4.85339C44.1451 4.77649 44.6534 4.90013 45.0756 5.22431C45.504 5.54766 45.7537 5.96478 45.8251 6.47564C45.8971 6.99239 45.7731 7.47661 45.4531 7.92837C45.133 8.38011 44.6794 8.64698 44.0922 8.72893L40.8773 9.17765ZM42.0325 7.80415L43.706 7.57059C43.9937 7.53041 44.2069 7.42881 44.3459 7.26575C44.4849 7.10271 44.5391 6.91255 44.5087 6.69528C44.4784 6.47801 44.3741 6.30997 44.1958 6.19118C44.0177 6.07239 43.7847 6.03306 43.497 6.07321L41.8222 6.29799L42.0325 7.80415Z" fill="white"/>
<path d="M53.0658 8.16785L53.9736 2.00903L56.8155 2.42794C57.4198 2.51699 57.9018 2.80381 58.262 3.28838C58.6277 3.77381 58.7685 4.30394 58.6837 4.87877C58.5973 5.46531 58.3125 5.93277 57.8298 6.2811C57.3477 6.62356 56.8017 6.74984 56.1918 6.65993L54.6697 6.43555L54.3856 8.36239L53.0658 8.16785ZM54.8447 5.2478L56.2347 5.4527C56.5222 5.49505 56.7737 5.43623 56.9889 5.27621C57.2043 5.11617 57.3315 4.90418 57.3704 4.64022C57.4084 4.38216 57.3462 4.15422 57.1834 3.95646C57.0267 3.75956 56.8017 3.6395 56.5084 3.59625L55.1184 3.39135L54.8447 5.2478Z" fill="white"/>
<path d="M61.3628 6.23614C61.6556 5.40894 62.1993 4.80577 62.9939 4.42662C63.7885 4.04747 64.5994 4.0043 65.4267 4.29707C66.2538 4.58986 66.8543 5.13253 67.2278 5.92513C67.6069 6.71971 67.6529 7.53159 67.3656 8.36077C67.3636 8.36635 67.3608 8.37475 67.3568 8.38591C67.0699 9.19634 66.533 9.78933 65.7459 10.1649C64.9458 10.542 64.1322 10.5842 63.3049 10.2915C62.4778 9.99866 61.8735 9.45779 61.4925 8.66879C61.1134 7.87421 61.07 7.06333 61.3628 6.23614ZM62.6666 8.15037C62.8716 8.61921 63.2229 8.94166 63.7205 9.11773C64.2178 9.29379 64.6936 9.26411 65.1481 9.02873C65.6081 8.7953 65.928 8.42429 66.1081 7.91567C66.2882 7.40704 66.2729 6.91735 66.0621 6.44653C65.8589 5.97211 65.5087 5.64686 65.0111 5.47079C64.5193 5.29671 64.0424 5.32917 63.5804 5.56818C63.1204 5.80161 62.8004 6.17264 62.6204 6.68125C62.4405 7.18986 62.4558 7.67958 62.6666 8.15037Z" fill="white"/>
<path d="M68.6545 12.1344L69.2764 11.1075C69.4074 11.2006 69.5336 11.2667 69.6555 11.3058C69.7856 11.343 69.8956 11.3612 69.9861 11.3606C70.0848 11.358 70.1831 11.3274 70.2809 11.2688C70.387 11.2083 70.4686 11.1537 70.5257 11.1051C70.5908 11.0546 70.664 10.974 70.7447 10.8635C70.8336 10.751 70.8934 10.6694 70.9244 10.6187C70.9581 10.563 71.0102 10.4767 71.0809 10.3601L72.8687 7.40869L76.8547 9.82307L73.6293 15.1478L72.4883 14.4566L75.0684 10.1969L73.3647 9.16478L72.2172 11.0588C71.2221 12.7019 70.0346 13.0604 68.6545 12.1344Z" fill="white"/>
<path d="M75.8688 16.5471L80.058 11.9421L81.0249 12.8219L77.691 16.4735L82.5711 14.2282L84.1498 15.6646L79.9606 20.2695L78.9935 19.3898L82.4288 15.6137L77.4016 17.9415L75.8688 16.5471Z" fill="white"/>
<path d="M85.1033 26.3778L84.0681 24.9976L84.7297 21.7L82.7234 23.2047L81.923 22.1375L86.9033 18.4023L87.7037 19.4695L85.7116 20.9636L89.0377 21.2482L90.0569 22.6072L85.9268 22.2585L85.1033 26.3778Z" fill="white"/>
<path d="M86.6187 28.4463L92.2179 25.7258L92.7893 26.9018L88.338 29.0546L93.7027 28.7814L94.6354 30.7012L89.0359 33.4217L88.4647 32.246L93.0561 30.0151L87.5242 30.3101L86.6187 28.4463Z" fill="white"/>
<path d="M93.2511 39.5307L94.3877 39.3184L94.9804 42.4917L93.8438 42.7041L93.2511 39.5307Z" fill="white"/>
</svg>
