<svg width="19" height="17" viewBox="0 0 19 17" fill="none" xmlns="http://www.w3.org/2000/svg">
<path d="M14.0061 3.28989L6.4344 7.95329C6.00592 8.21779 5.80316 8.74023 5.9412 9.22343L6.75989 12.1001C6.82983 12.3453 7.0481 12.5084 7.29923 12.5084C7.31321 12.5084 7.32735 12.5079 7.34151 12.5068C7.60998 12.4873 7.82242 12.2874 7.85812 12.0209L8.07099 10.4435C8.09969 10.2313 8.20195 10.0339 8.35869 9.88797L14.6069 4.07988C14.7958 3.90481 14.8207 3.61811 14.6651 3.41304C14.5093 3.20779 14.2261 3.15472 14.0061 3.28989ZM7.85909 9.35094C7.57833 9.61228 7.39541 9.96543 7.34407 10.3454L7.24083 11.1105L6.64655 9.02232C6.59826 8.85317 6.66939 8.67025 6.81933 8.5777L12.3661 5.16143L7.85909 9.35094Z" fill="#363636"/>
<path d="M18.2637 0.250224C18.0271 0.0497216 17.7007 -0.00547406 17.4115 0.106212L0.694906 6.555C0.363841 6.68269 0.150969 6.99441 0.152659 7.34914C0.154385 7.70419 0.370385 8.01418 0.703393 8.13896L4.60808 9.5963L6.13123 14.4947C6.21486 14.764 6.42597 14.9732 6.69587 15.0544C6.96563 15.1355 7.25696 15.0775 7.47473 14.8994L9.74512 13.0486C9.85414 12.9597 10.0098 12.9553 10.1237 13.038L14.2187 16.011C14.366 16.1181 14.5399 16.1732 14.7157 16.1732C14.8188 16.1732 14.9225 16.1543 15.022 16.1158C15.2912 16.0117 15.4869 15.781 15.5455 15.4987L18.5455 1.06838C18.6085 0.764532 18.5005 0.45105 18.2637 0.250224ZM17.8273 0.919331L14.8274 15.3496C14.8166 15.4017 14.779 15.4234 14.7576 15.4317C14.736 15.4401 14.6934 15.4493 14.6498 15.4176L10.5547 12.4444C10.3716 12.3115 10.1564 12.2455 9.94152 12.2455C9.70715 12.2455 9.4731 12.3241 9.2818 12.4799L7.0109 14.3312C6.97049 14.3643 6.92852 14.3584 6.90716 14.352C6.88566 14.3455 6.84729 14.3272 6.83169 14.277L5.25511 9.20666C5.22141 9.09832 5.13943 9.01166 5.03314 8.97196L0.960349 7.4519C0.899364 7.42907 0.886383 7.3815 0.886203 7.34558C0.886024 7.30998 0.898537 7.26262 0.958947 7.23932L17.6756 0.790566C17.6757 0.79053 17.6758 0.790494 17.6759 0.790458C17.7302 0.769494 17.7703 0.793586 17.7895 0.809767C17.8087 0.826128 17.8392 0.862086 17.8273 0.919331Z" fill="#363636"/>
</svg>
