<svg width="23" height="16" viewBox="0 0 23 16" fill="none" xmlns="http://www.w3.org/2000/svg">
<path fill-rule="evenodd" clip-rule="evenodd" d="M0.208444 1.13299C0.322306 0.997887 0.489982 0.919922 0.666659 0.919922H4.88567C5.1792 0.919922 5.42953 1.13254 5.47704 1.4222C5.65057 2.48022 6.22121 4.52304 7.56252 6.44138C7.75217 6.71273 7.68602 7.08631 7.41478 7.27592C7.14354 7.46565 6.76991 7.39949 6.58025 7.12826C5.29937 5.29629 4.66177 3.36993 4.3905 2.11847H1.4064C1.92048 4.20153 3.33045 7.73964 5.457 10.4122C6.62267 11.8771 7.88872 12.817 8.98378 13.3822C10.0966 13.9565 10.9914 14.1237 11.4085 14.1021C11.4237 14.1014 11.4389 14.1012 11.4543 14.1015C11.6483 14.1063 11.8842 14.0531 12.0594 13.9103C12.2118 13.7863 12.3967 13.532 12.3967 12.9605V11.1378C12.3967 10.7867 12.5343 10.4321 12.8281 10.2046C13.1382 9.96426 13.5437 9.92986 13.9064 10.0979C14.2915 10.2764 14.7317 10.5044 15.0005 10.6492C15.0158 10.6575 15.0306 10.6662 15.045 10.6757C16.4079 11.5697 17.7209 13.0056 18.5533 14.0718C18.5645 14.0862 18.5754 14.0937 18.5826 14.0974C18.5897 14.1009 18.5939 14.1013 18.5959 14.1013H21.6111C21.6189 14.1013 21.6225 14.1002 21.6232 14.1001C21.6241 14.0997 21.6244 14.0996 21.625 14.0992C21.6265 14.0982 21.6317 14.0938 21.6362 14.084C21.6406 14.0742 21.6419 14.064 21.6408 14.0555C21.6401 14.0494 21.6377 14.0373 21.6227 14.0192C20.8742 13.1122 19.879 11.9993 19.0118 11.0294C18.704 10.6852 18.4124 10.3591 18.1537 10.0666C17.5552 9.39016 17.5118 8.39752 17.9727 7.65478C18.9826 6.02692 20.3116 3.69055 20.7217 2.11847H18.2739C18.2723 2.11847 18.2647 2.11848 18.2504 2.12852C18.235 2.13931 18.2149 2.16044 18.1999 2.19438C17.346 4.12141 15.546 6.49987 14.2361 7.69482C13.8697 8.02897 13.3771 8.08231 12.9781 7.85147C12.605 7.63561 12.3967 7.22295 12.3967 6.78488V2.11847H9.19526C9.23829 2.19834 9.28048 2.28026 9.32099 2.36371C9.56394 2.86328 9.78591 3.48538 9.78591 4.08587C9.78591 4.34255 9.78794 4.73099 9.79046 5.18458C9.79681 6.36899 9.80556 7.99769 9.78567 8.88461C9.77836 9.21553 9.50401 9.47777 9.17321 9.47034C8.84228 9.46291 8.58005 9.18868 8.58747 8.85776C8.60696 7.98882 8.59836 6.40003 8.59199 5.21898C8.58948 4.75595 8.58733 4.35557 8.58733 4.08587C8.58733 3.75104 8.45422 3.32183 8.24319 2.8879C8.03617 2.46222 7.78667 2.09791 7.62478 1.90818C7.47302 1.73034 7.43854 1.48048 7.53648 1.26818C7.6344 1.05588 7.84685 0.919922 8.08064 0.919922H12.996C13.327 0.919922 13.5952 1.18823 13.5952 1.51919V6.65268C14.7778 5.51382 16.358 3.39256 17.1041 1.7088C17.2997 1.26743 17.7341 0.919922 18.2739 0.919922H20.7292C21.4729 0.919922 22.0916 1.60612 21.8862 2.40263C21.428 4.17954 19.9904 6.67581 18.9911 8.28654C18.7906 8.60979 18.8268 9.01861 19.0514 9.27246C19.3009 9.55448 19.5858 9.87317 19.889 10.2122C20.7601 11.1864 21.782 12.3292 22.5472 13.2563C23.2037 14.0519 22.6872 15.2998 21.6111 15.2998H18.5959C18.1979 15.2998 17.8408 15.1067 17.6086 14.8094C16.8141 13.7916 15.6053 12.4829 14.4091 11.6921C14.1978 11.5786 13.8894 11.4187 13.5952 11.2767V12.9605C13.5952 13.8265 13.2955 14.4495 12.8163 14.8397C12.369 15.2039 11.8389 15.3055 11.4478 15.3002C10.7443 15.3299 9.64412 15.0717 8.4341 14.4472C7.19339 13.8069 5.79355 12.7601 4.51913 11.1585C1.99296 7.98366 0.432823 3.69714 0.0760406 1.62068C0.0461249 1.44654 0.0945702 1.26809 0.208444 1.13299ZM13.5982 11.1091C13.5984 11.1092 13.5981 11.1099 13.5975 11.1114L13.5982 11.1091ZM13.4025 11.1853H13.4024H13.4025ZM13.6041 6.83558C13.604 6.83558 13.6035 6.83486 13.6027 6.8333C13.6038 6.83474 13.6042 6.83546 13.6041 6.83558Z" fill="#363636"/>
</svg>
