<svg width="21" height="22" viewBox="0 0 21 22" fill="none" xmlns="http://www.w3.org/2000/svg">
<path d="M6.20039 18.4416C7.4789 19.2087 9.01311 19.6349 10.5473 19.6349C15.2352 19.6349 19.0707 15.7994 19.0707 11.1115C19.0707 6.42366 15.2352 2.58813 10.5473 2.58813C5.85945 2.58813 2.02393 6.42366 2.02393 11.1115C2.02393 12.6457 2.4501 14.0947 3.13197 15.3732L2.47441 17.9023C2.27525 18.6683 2.98426 19.3605 3.7453 19.1431L6.20039 18.4416Z" stroke="#363636" stroke-width="1.02281" stroke-miterlimit="10" stroke-linecap="round" stroke-linejoin="round"/>
<path d="M14.3828 13.5393C14.3828 13.6774 14.3521 13.8193 14.2868 13.9574C14.2215 14.0954 14.137 14.2259 14.0256 14.3486C13.8374 14.5557 13.63 14.7053 13.3956 14.8012C13.1652 14.8971 12.9155 14.9469 12.6466 14.9469C12.2548 14.9469 11.8361 14.8549 11.3943 14.6669C10.9526 14.479 10.5108 14.2259 10.0729 13.9075C9.63117 13.5853 9.21247 13.2286 8.81298 12.8336C8.41732 12.4347 8.06008 12.0166 7.74126 11.5793C7.42627 11.1421 7.17275 10.7048 6.98836 10.2714C6.80398 9.83418 6.71179 9.4161 6.71179 9.01721C6.71179 8.75639 6.75789 8.50708 6.85008 8.27695C6.94227 8.04298 7.08824 7.82819 7.29183 7.63642C7.53767 7.39478 7.80656 7.27588 8.09081 7.27588C8.19837 7.27588 8.30593 7.29889 8.40196 7.34492C8.50183 7.39094 8.59018 7.45998 8.65933 7.55971L9.5505 8.81393C9.61965 8.90981 9.66958 8.99803 9.70416 9.08241C9.73873 9.16296 9.75793 9.2435 9.75793 9.31638C9.75793 9.40843 9.73104 9.50048 9.67727 9.5887C9.62733 9.67692 9.55435 9.76897 9.46215 9.86102L9.17022 10.164C9.12796 10.2062 9.10876 10.2561 9.10876 10.3175C9.10876 10.3481 9.1126 10.375 9.12028 10.4057C9.1318 10.4364 9.14333 10.4594 9.15101 10.4824C9.22015 10.609 9.33923 10.7739 9.50825 10.9733C9.68111 11.1728 9.86549 11.3761 10.0652 11.5793C10.2727 11.7826 10.4724 11.9706 10.676 12.1432C10.8757 12.3119 11.0409 12.427 11.1715 12.496C11.1907 12.5037 11.2138 12.5152 11.2407 12.5267C11.2714 12.5382 11.3021 12.5421 11.3367 12.5421C11.402 12.5421 11.4519 12.519 11.4942 12.4769L11.7861 12.1892C11.8822 12.0933 11.9744 12.0204 12.0627 11.9744C12.1511 11.9207 12.2394 11.8939 12.3354 11.8939C12.4084 11.8939 12.4852 11.9092 12.5698 11.9437C12.6543 11.9782 12.7426 12.0281 12.8386 12.0933L14.1101 12.9946C14.21 13.0637 14.2791 13.1442 14.3214 13.2401C14.3598 13.336 14.3828 13.4319 14.3828 13.5393Z" stroke="#363636" stroke-width="1.02281" stroke-miterlimit="10"/>
</svg>
