<svg width="21" height="22" viewBox="0 0 21 22" fill="none" xmlns="http://www.w3.org/2000/svg">
<path d="M10.6423 16.0118C7.94032 16.0118 5.74158 13.8134 5.74158 11.1115C5.74158 8.40951 7.94032 6.21118 10.6423 6.21118C13.3443 6.21118 15.543 8.40951 15.543 11.1115C15.543 13.8134 13.3443 16.0118 10.6423 16.0118ZM10.6423 7.46931C8.63394 7.46931 6.99971 9.10318 6.99971 11.1115C6.99971 13.1198 8.63358 14.7536 10.6423 14.7536C12.651 14.7536 14.2849 13.1198 14.2849 11.1115C14.2849 9.10318 12.6506 7.46931 10.6423 7.46931Z" fill="#363636"/>
<path d="M17.3064 5.49066C17.3064 6.06645 16.8388 6.53234 16.2647 6.53234C15.6897 6.53234 15.2222 6.06645 15.2222 5.49066C15.2222 4.91529 15.6898 4.44897 16.2647 4.44897C16.8384 4.44856 17.3064 4.91529 17.3064 5.49066Z" fill="#363636"/>
<path d="M14.9656 21.3832H6.31912C3.03886 21.3832 0.369995 18.7144 0.369995 15.4336V6.7889C0.369995 3.50864 3.03839 0.839355 6.31912 0.839355H14.9652C18.2454 0.839355 20.9143 3.50817 20.9143 6.7889V15.4337C20.9142 18.7144 18.2458 21.3832 14.9656 21.3832ZM6.31912 2.09785C3.73248 2.09785 1.62813 4.20221 1.62813 6.78927V15.434C1.62813 18.0207 3.73248 20.1255 6.31912 20.1255H14.9652C17.5518 20.1255 19.6561 18.0211 19.6561 15.434V6.7889C19.6561 4.20226 17.5518 2.09749 14.9652 2.09749H6.31912V2.09785Z" fill="#363636"/>
</svg>
